. 
  
http://www.torrentday.com/        :     The Hottest Private Tracker On The Net!!!


               www . TorrentDay . Com 
(((((((((((((= Enjoy No RAR releases =))))))))))))))))))))


...................................NFO:....................................

.[img]http://leetleech.org/images/09908081291975149128.png[/img]

[b]The Back-up Plan 2010 480p BRRip XviD AC3-LEGi0N

[img]http://leetleech.org/images/48874973695367351744.png[/img]
[color=red]General[/color]
Format: AVI
File size: 1.45 GiB
Duration: 1h 44mn
Overall bit rate: 1 997 Kbps
IMDb Rating: 4.4/10   5,482 votes
Genre: Comedy | Romance 
Release Date: 23 April 2010
IMDb Link: http://www.imdb.com/title/tt1212436/
Source: 720p BluRay x264-MACHD

[color=red]Video[/color]
Format: MPEG-4 Visual
Format profile: Streaming Video@L1
Format settings, BVOP: Yes
Format settings, QPel: No
Format settings, GMC: No warppoints
Format settings, Matrix: Default (H.263)
Muxing mode: Packed bitstream
Codec ID: XVID
Bit rate: 1 540 Kbps
Width: 720 pixels
Height: 304 pixels
Display aspect ratio: 2.35
Frame rate: 23.976 fps
Resolution: 24 bits
Colorimetry: 4:2:0
Scan type: Progressive
Bits/(Pixel*Frame): 0.293
Stream size: 1.12 GiB (77%)

[color=red]Audio[/color]
Format: AC-3
Bit rate mode: Constant
Bit rate: 448 Kbps
Channel(s): 6 channels
Sampling rate: 48.0 KHz
Stream size: 334 MiB (22%)

[img]http://leetleech.org/images/89524873606771859129.png[/img]
Zoe's a woman who has a hard time letting anyone into her life. 
She has a habit of pushing people away when they get close. She 
also wants to have a baby but because she has no man in her life 
decides to be artificially inseminated. Shortly after having the 
procedure she meets a guy named Stan whom she connects with. But 
she's still afraid to let him in and when she tells him about her 
pregnancy thinking he would bail but he sticks with her.

[color=red]Tagline:[color]
Fall in love.* Get married. Have a baby. *Not necessarily in that order.

[img]http://leetleech.org/images/84434050717770922575.png[/img]
Jennifer Lopez	... 	Zoe
Alex O'Loughlin	... 	Stan
Michaela Watkins	... 	Mona
Eric Christian Olsen	... 	Clive
Anthony Anderson	... 	Playground Dad
Noureen DeWulf	... 	Daphne
Melissa McCarthy	... 	Carol
Tom Bosley	... 	Arthur
Maribeth Monroe	... 	Lori
Danneel Harris	... 	Olivia
Robert Klein	... 	Dr. Scott Harris
Linda Lavin	... 	Nana
Carlease Burke	... 	Tabitha
Amy Block	... 	Sara
Jennifer Elise Cox	... 	Baby Store Sales Clerk

[color=red]GREETZ[/color]
Noir | xXTHORNXx | bigimac | LUSi |

kempas | KaN1vE | mike160 | skillz |

Lungbuster | Sheikh | dillon1369 |

FLAWL3SS | AND ALL P2P!

[color=red]SAMPLE INCLUDED![/color][/b]

[img]http://leetleech.org/images/95521316153253938506.png[/img]
[img]http://leetleech.org/images/12504215141920468274.png[/img]
[img]http://leetleech.org/images/80071866723815739318.png[/img]
[img]http://leetleech.org/images/92517286945216712899.png[/img]
[img]http://leetleech.org/images/70449272746819431769.png[/img]
[img]http://leetleech.org/images/33040479242441479677.png[/img]
[img]http://leetleech.org/images/12755021538703799215.png[/img]